<svg xmlns="http://www.w3.org/2000/svg" version="1.1" xmlns:xlink="http://www.w3.org/1999/xlink" xmlns:svgjs="http://svgjs.dev/svgjs" width="1440" height="560" preserveAspectRatio="none" viewBox="0 0 1440 560"><g mask="url(&quot;#SvgjsMask1112&quot;)" fill="none"><rect width="1440" height="560" x="0" y="0" fill="rgba(71, 14, 14, 1)"></rect><use xlink:href="#SvgjsG1115" transform="translate(0, 0)" fill="rgba(123, 15, 15, 1)"></use><use xlink:href="#SvgjsG1115" transform="translate(0, 540)" fill="rgba(123, 15, 15, 1)"></use><use xlink:href="#SvgjsG1115" transform="translate(540, 0)" fill="rgba(123, 15, 15, 1)"></use><use xlink:href="#SvgjsG1115" transform="translate(540, 540)" fill="rgba(123, 15, 15, 1)"></use><use xlink:href="#SvgjsG1115" transform="translate(1080, 0)" fill="rgba(123, 15, 15, 1)"></use><use xlink:href="#SvgjsG1115" transform="translate(1080, 540)" fill="rgba(123, 15, 15, 1)"></use></g><defs><mask id="SvgjsMask1112"><rect width="1440" height="560" fill="#ffffff"></rect></mask><g id="SvgjsG1113"><path d="M4.096 1.54l10.36 10.364L11.906 14.46 1.54 4.096 4.096 1.54z" fill-rule="evenodd"></path><path d="M11.904 1.54L14.46 4.1 4.096 14.46 1.54 11.904 11.906 1.544z" fill-rule="evenodd"></path></g><g id="SvgjsG1114"><path d="M5.98 0h4.04v10.94H5.98z m0 12.78h4.04V16H5.98z"></path></g><g id="SvgjsG1115"><use xlink:href="#SvgjsG1113" transform="translate(0, 0) scale(2)" fill="rgba(123, 15, 15, 1)"></use><use xlink:href="#SvgjsG1114" transform="translate(0, 54) scale(2)" fill="rgba(123, 15, 15, 1)"></use><use xlink:href="#SvgjsG1113" transform="translate(0, 108) scale(2)" fill="rgba(123, 15, 15, 1)"></use><use xlink:href="#SvgjsG1114" transform="translate(0, 162) scale(2)" fill="rgba(123, 15, 15, 1)"></use><use xlink:href="#SvgjsG1113" transform="translate(0, 216) scale(2)" fill="rgba(123, 15, 15, 1)"></use><use xlink:href="#SvgjsG1114" transform="translate(0, 270) scale(2)" fill="rgba(123, 15, 15, 1)"></use><use xlink:href="#SvgjsG1113" transform="translate(0, 324) scale(2)" fill="rgba(123, 15, 15, 1)"></use><use xlink:href="#SvgjsG1114" transform="translate(0, 378) scale(2)" fill="rgba(123, 15, 15, 1)"></use><use xlink:href="#SvgjsG1113" transform="translate(0, 432) scale(2)" fill="rgba(123, 15, 15, 1)"></use><use xlink:href="#SvgjsG1114" transform="translate(0, 486) scale(2)" fill="rgba(123, 15, 15, 1)"></use><use xlink:href="#SvgjsG1114" transform="translate(54, 0) scale(2)" fill="rgba(123, 15, 15, 1)"></use><use xlink:href="#SvgjsG1113" transform="translate(54, 54) scale(2)" fill="rgba(123, 15, 15, 1)"></use><use xlink:href="#SvgjsG1114" transform="translate(54, 108) scale(2)" fill="rgba(123, 15, 15, 1)"></use><use xlink:href="#SvgjsG1113" transform="translate(54, 162) scale(2)" fill="rgba(123, 15, 15, 1)"></use><use xlink:href="#SvgjsG1114" transform="translate(54, 216) scale(2)" fill="rgba(123, 15, 15, 1)"></use><use xlink:href="#SvgjsG1113" transform="translate(54, 270) scale(2)" fill="rgba(123, 15, 15, 1)"></use><use xlink:href="#SvgjsG1114" transform="translate(54, 324) scale(2)" fill="rgba(123, 15, 15, 1)"></use><use xlink:href="#SvgjsG1113" transform="translate(54, 378) scale(2)" fill="rgba(123, 15, 15, 1)"></use><use xlink:href="#SvgjsG1114" transform="translate(54, 432) scale(2)" fill="rgba(123, 15, 15, 1)"></use><use xlink:href="#SvgjsG1113" transform="translate(54, 486) scale(2)" fill="rgba(123, 15, 15, 1)"></use><use xlink:href="#SvgjsG1113" transform="translate(108, 0) scale(2)" fill="rgba(123, 15, 15, 1)"></use><use xlink:href="#SvgjsG1114" transform="translate(108, 54) scale(2)" fill="rgba(123, 15, 15, 1)"></use><use xlink:href="#SvgjsG1113" transform="translate(108, 108) scale(2)" fill="rgba(123, 15, 15, 1)"></use><use xlink:href="#SvgjsG1114" transform="translate(108, 162) scale(2)" fill="rgba(123, 15, 15, 1)"></use><use xlink:href="#SvgjsG1113" transform="translate(108, 216) scale(2)" fill="rgba(123, 15, 15, 1)"></use><use xlink:href="#SvgjsG1114" transform="translate(108, 270) scale(2)" fill="rgba(123, 15, 15, 1)"></use><use xlink:href="#SvgjsG1113" transform="translate(108, 324) scale(2)" fill="rgba(123, 15, 15, 1)"></use><use xlink:href="#SvgjsG1114" transform="translate(108, 378) scale(2)" fill="rgba(123, 15, 15, 1)"></use><use xlink:href="#SvgjsG1113" transform="translate(108, 432) scale(2)" fill="rgba(123, 15, 15, 1)"></use><use xlink:href="#SvgjsG1114" transform="translate(108, 486) scale(2)" fill="rgba(123, 15, 15, 1)"></use><use xlink:href="#SvgjsG1114" transform="translate(162, 0) scale(2)" fill="rgba(123, 15, 15, 1)"></use><use xlink:href="#SvgjsG1113" transform="translate(162, 54) scale(2)" fill="rgba(123, 15, 15, 1)"></use><use xlink:href="#SvgjsG1114" transform="translate(162, 108) scale(2)" fill="rgba(123, 15, 15, 1)"></use><use xlink:href="#SvgjsG1113" transform="translate(162, 162) scale(2)" fill="rgba(123, 15, 15, 1)"></use><use xlink:href="#SvgjsG1114" transform="translate(162, 216) scale(2)" fill="rgba(123, 15, 15, 1)"></use><use xlink:href="#SvgjsG1113" transform="translate(162, 270) scale(2)" fill="rgba(123, 15, 15, 1)"></use><use xlink:href="#SvgjsG1114" transform="translate(162, 324) scale(2)" fill="rgba(123, 15, 15, 1)"></use><use xlink:href="#SvgjsG1113" transform="translate(162, 378) scale(2)" fill="rgba(123, 15, 15, 1)"></use><use xlink:href="#SvgjsG1114" transform="translate(162, 432) scale(2)" fill="rgba(123, 15, 15, 1)"></use><use xlink:href="#SvgjsG1113" transform="translate(162, 486) scale(2)" fill="rgba(123, 15, 15, 1)"></use><use xlink:href="#SvgjsG1113" transform="translate(216, 0) scale(2)" fill="rgba(123, 15, 15, 1)"></use><use xlink:href="#SvgjsG1114" transform="translate(216, 54) scale(2)" fill="rgba(123, 15, 15, 1)"></use><use xlink:href="#SvgjsG1113" transform="translate(216, 108) scale(2)" fill="rgba(123, 15, 15, 1)"></use><use xlink:href="#SvgjsG1114" transform="translate(216, 162) scale(2)" fill="rgba(123, 15, 15, 1)"></use><use xlink:href="#SvgjsG1113" transform="translate(216, 216) scale(2)" fill="rgba(123, 15, 15, 1)"></use><use xlink:href="#SvgjsG1114" transform="translate(216, 270) scale(2)" fill="rgba(123, 15, 15, 1)"></use><use xlink:href="#SvgjsG1113" transform="translate(216, 324) scale(2)" fill="rgba(123, 15, 15, 1)"></use><use xlink:href="#SvgjsG1114" transform="translate(216, 378) scale(2)" fill="rgba(123, 15, 15, 1)"></use><use xlink:href="#SvgjsG1113" transform="translate(216, 432) scale(2)" fill="rgba(123, 15, 15, 1)"></use><use xlink:href="#SvgjsG1114" transform="translate(216, 486) scale(2)" fill="rgba(123, 15, 15, 1)"></use><use xlink:href="#SvgjsG1114" transform="translate(270, 0) scale(2)" fill="rgba(123, 15, 15, 1)"></use><use xlink:href="#SvgjsG1113" transform="translate(270, 54) scale(2)" fill="rgba(123, 15, 15, 1)"></use><use xlink:href="#SvgjsG1114" transform="translate(270, 108) scale(2)" fill="rgba(123, 15, 15, 1)"></use><use xlink:href="#SvgjsG1113" transform="translate(270, 162) scale(2)" fill="rgba(123, 15, 15, 1)"></use><use xlink:href="#SvgjsG1114" transform="translate(270, 216) scale(2)" fill="rgba(123, 15, 15, 1)"></use><use xlink:href="#SvgjsG1113" transform="translate(270, 270) scale(2)" fill="rgba(123, 15, 15, 1)"></use><use xlink:href="#SvgjsG1114" transform="translate(270, 324) scale(2)" fill="rgba(123, 15, 15, 1)"></use><use xlink:href="#SvgjsG1113" transform="translate(270, 378) scale(2)" fill="rgba(123, 15, 15, 1)"></use><use xlink:href="#SvgjsG1114" transform="translate(270, 432) scale(2)" fill="rgba(123, 15, 15, 1)"></use><use xlink:href="#SvgjsG1113" transform="translate(270, 486) scale(2)" fill="rgba(123, 15, 15, 1)"></use><use xlink:href="#SvgjsG1113" transform="translate(324, 0) scale(2)" fill="rgba(123, 15, 15, 1)"></use><use xlink:href="#SvgjsG1114" transform="translate(324, 54) scale(2)" fill="rgba(123, 15, 15, 1)"></use><use xlink:href="#SvgjsG1113" transform="translate(324, 108) scale(2)" fill="rgba(123, 15, 15, 1)"></use><use xlink:href="#SvgjsG1114" transform="translate(324, 162) scale(2)" fill="rgba(123, 15, 15, 1)"></use><use xlink:href="#SvgjsG1113" transform="translate(324, 216) scale(2)" fill="rgba(123, 15, 15, 1)"></use><use xlink:href="#SvgjsG1114" transform="translate(324, 270) scale(2)" fill="rgba(123, 15, 15, 1)"></use><use xlink:href="#SvgjsG1113" transform="translate(324, 324) scale(2)" fill="rgba(123, 15, 15, 1)"></use><use xlink:href="#SvgjsG1114" transform="translate(324, 378) scale(2)" fill="rgba(123, 15, 15, 1)"></use><use xlink:href="#SvgjsG1113" transform="translate(324, 432) scale(2)" fill="rgba(123, 15, 15, 1)"></use><use xlink:href="#SvgjsG1114" transform="translate(324, 486) scale(2)" fill="rgba(123, 15, 15, 1)"></use><use xlink:href="#SvgjsG1114" transform="translate(378, 0) scale(2)" fill="rgba(123, 15, 15, 1)"></use><use xlink:href="#SvgjsG1113" transform="translate(378, 54) scale(2)" fill="rgba(123, 15, 15, 1)"></use><use xlink:href="#SvgjsG1114" transform="translate(378, 108) scale(2)" fill="rgba(123, 15, 15, 1)"></use><use xlink:href="#SvgjsG1113" transform="translate(378, 162) scale(2)" fill="rgba(123, 15, 15, 1)"></use><use xlink:href="#SvgjsG1114" transform="translate(378, 216) scale(2)" fill="rgba(123, 15, 15, 1)"></use><use xlink:href="#SvgjsG1113" transform="translate(378, 270) scale(2)" fill="rgba(123, 15, 15, 1)"></use><use xlink:href="#SvgjsG1114" transform="translate(378, 324) scale(2)" fill="rgba(123, 15, 15, 1)"></use><use xlink:href="#SvgjsG1113" transform="translate(378, 378) scale(2)" fill="rgba(123, 15, 15, 1)"></use><use xlink:href="#SvgjsG1114" transform="translate(378, 432) scale(2)" fill="rgba(123, 15, 15, 1)"></use><use xlink:href="#SvgjsG1113" transform="translate(378, 486) scale(2)" fill="rgba(123, 15, 15, 1)"></use><use xlink:href="#SvgjsG1113" transform="translate(432, 0) scale(2)" fill="rgba(123, 15, 15, 1)"></use><use xlink:href="#SvgjsG1114" transform="translate(432, 54) scale(2)" fill="rgba(123, 15, 15, 1)"></use><use xlink:href="#SvgjsG1113" transform="translate(432, 108) scale(2)" fill="rgba(123, 15, 15, 1)"></use><use xlink:href="#SvgjsG1114" transform="translate(432, 162) scale(2)" fill="rgba(123, 15, 15, 1)"></use><use xlink:href="#SvgjsG1113" transform="translate(432, 216) scale(2)" fill="rgba(123, 15, 15, 1)"></use><use xlink:href="#SvgjsG1114" transform="translate(432, 270) scale(2)" fill="rgba(123, 15, 15, 1)"></use><use xlink:href="#SvgjsG1113" transform="translate(432, 324) scale(2)" fill="rgba(123, 15, 15, 1)"></use><use xlink:href="#SvgjsG1114" transform="translate(432, 378) scale(2)" fill="rgba(123, 15, 15, 1)"></use><use xlink:href="#SvgjsG1113" transform="translate(432, 432) scale(2)" fill="rgba(123, 15, 15, 1)"></use><use xlink:href="#SvgjsG1114" transform="translate(432, 486) scale(2)" fill="rgba(123, 15, 15, 1)"></use><use xlink:href="#SvgjsG1114" transform="translate(486, 0) scale(2)" fill="rgba(123, 15, 15, 1)"></use><use xlink:href="#SvgjsG1113" transform="translate(486, 54) scale(2)" fill="rgba(123, 15, 15, 1)"></use><use xlink:href="#SvgjsG1114" transform="translate(486, 108) scale(2)" fill="rgba(123, 15, 15, 1)"></use><use xlink:href="#SvgjsG1113" transform="translate(486, 162) scale(2)" fill="rgba(123, 15, 15, 1)"></use><use xlink:href="#SvgjsG1114" transform="translate(486, 216) scale(2)" fill="rgba(123, 15, 15, 1)"></use><use xlink:href="#SvgjsG1113" transform="translate(486, 270) scale(2)" fill="rgba(123, 15, 15, 1)"></use><use xlink:href="#SvgjsG1114" transform="translate(486, 324) scale(2)" fill="rgba(123, 15, 15, 1)"></use><use xlink:href="#SvgjsG1113" transform="translate(486, 378) scale(2)" fill="rgba(123, 15, 15, 1)"></use><use xlink:href="#SvgjsG1114" transform="translate(486, 432) scale(2)" fill="rgba(123, 15, 15, 1)"></use><use xlink:href="#SvgjsG1113" transform="translate(486, 486) scale(2)" fill="rgba(123, 15, 15, 1)"></use></g></defs></svg>